<?xml version="1.0" encoding="UTF-8" standalone="no"?>
<svg
   version="1.0"
   width="1266.914481pt"
   height="376.256350pt"
   viewBox="0 0 1266.914481 376.256350"
   preserveAspectRatio="xMidYMid meet"
   id="svg27"
   sodipodi:docname="ScrapeGoat-Banner.svg"
   inkscape:version="1.4.4 (dcaf3e7d9e, 2026-05-05)"
   xmlns:inkscape="http://www.inkscape.org/namespaces/inkscape"
   xmlns:sodipodi="http://sodipodi.sourceforge.net/DTD/sodipodi-0.dtd"
   xmlns="http://www.w3.org/2000/svg"
   xmlns:svg="http://www.w3.org/2000/svg">
  <defs
     id="defs27" />
  <sodipodi:namedview
     id="namedview27"
     pagecolor="#505050"
     bordercolor="#ffffff"
     borderopacity="1"
     inkscape:showpageshadow="0"
     inkscape:pageopacity="0"
     inkscape:pagecheckerboard="1"
     inkscape:deskcolor="#505050"
     inkscape:document-units="pt"
     inkscape:zoom="1.9754689"
     inkscape:cx="844.86272"
     inkscape:cy="250.82653"
     inkscape:window-width="3398"
     inkscape:window-height="1363"
     inkscape:window-x="0"
     inkscape:window-y="0"
     inkscape:window-maximized="1"
     inkscape:current-layer="svg27" />
  <metadata
     id="metadata1">
Created by potrace 1.12, written by Peter Selinger 2001-2015
</metadata>
  <g
     transform="translate(-17.000000,387.592076) scale(0.100000,-0.100000)"
     fill="#000000"
     stroke="none"
     id="g27"
     style="fill:#ffffff;fill-opacity:1">
    <path
       d="M4044 3866 c-38 -7 -97 -21 -130 -31 l-59 -18 122 -18 c250 -36 433 -125 647 -313 l70 -61 119 2 c65 0 121 3 124 6 10 10 -116 164 -186 228 -107 98 -212 155 -357 194 -80 22 -261 28 -350 11z"
       id="path1"
       style="fill:#ffffff;fill-opacity:1" />
    <path
       d="M3699 3709 c-24 -24 -58 -96 -59 -122 0 -11 -5 -15 -11 -11 -8 4 -10 29 -6 70 6 76 6 76 -102 35 -84 -31 -110 -56 -118 -119 -7 -52 -19 -46 -28 13 l-6 46 -47 -27 c-144 -83 -316 -247 -416 -397 -52 -79 -135 -241 -151 -297 -9 -30 -7 -29 76 75 99 124 217 236 325 308 168 111 319 165 491 174 246 14 462 -67 651 -242 67 -62 96 -68 186 -41 92 28 156 96 158 166 1 34 -41 85 -99 121 -32 20 -32 20 -77 0 -25 -11 -66 -41 -92 -68 -38 -39 -45 -43 -39 -23 12 41 43 86 85 124 l39 35 -42 29 c-23 16 -65 41 -92 55 -50 25 -51 25 -85 7 -39 -20 -66 -47 -104 -104 -23 -35 -26 -36 -26 -15 1 33 36 109 66 140 l25 26 -28 11 c-47 19 -136 42 -158 42 -27 0 -90 -62 -121 -119 l-25 -46 6 50 c3 27 14 67 24 87 l18 38 -98 0 c-87 0 -102 -3 -120 -21z"
       id="path2"
       style="fill:#ffffff;fill-opacity:1" />
    <path
       d="M3595 3379 c-33 -5 -89 -18 -125 -29 -58 -17 -68 -24 -94 -65 -65 -104 -141 -286 -161 -385 -6 -30 1 -23 50 49 119 177 256 325 371 401 62 42 60 44 -41 29z"
       id="path3"
       style="fill:#ffffff;fill-opacity:1" />
    <path
       d="M4804 3353 l-80 -4 -12 -45 c-16 -59 -55 -116 -102 -149 -45 -31 -131 -65 -165 -65 -30 0 -32 -11 -5 -35 35 -32 22 -34 -32 -5 -75 40 -130 52 -233 52 -66 0 -117 -8 -190 -27 -80 -22 -123 -28 -217 -28 -65 -1 -118 -5 -118 -9 0 -27 51 -109 97 -155 131 -131 287 -162 519 -103 147 37 163 37 99 2 -118 -65 -144 -90 -230 -221 -272 -414 -445 -822 -486 -1146 -14 -117 -7 -305 16 -389 37 -133 123 -260 222 -325 106 -70 275 -92 404 -51 65 20 169 82 169 101 0 5 -7 26 -16 47 -9 20 -24 74 -33 120 l-17 82 -32 -44 c-36 -52 -93 -85 -163 -93 -105 -12 -197 57 -240 183 -33 96 -34 281 -1 364 49 124 126 185 232 184 66 -1 104 -19 154 -74 69 -77 89 -145 106 -358 18 -229 57 -347 146 -442 62 -66 127 -93 226 -93 61 0 87 5 125 24 40 20 48 28 46 49 -8 109 -17 190 -20 190 -3 0 -16 -9 -30 -20 -54 -42 -133 -17 -169 53 -28 53 -35 88 -44 232 -22 343 -152 558 -389 641 -128 45 -321 28 -429 -38 -55 -34 -46 -13 10 24 100 64 177 88 290 88 101 0 167 -14 254 -56 87 -41 160 -105 225 -197 28 -40 50 -64 53 -56 2 8 11 55 20 106 23 129 58 230 126 366 l59 117 -54 0 c-163 0 -306 105 -355 259 -31 98 -25 116 15 42 101 -187 279 -257 513 -201 46 11 112 20 147 20 l64 0 -6 -55 c-6 -60 8 -127 36 -164 l18 -23 6 50 c3 28 12 63 20 78 14 26 14 26 20 -29 7 -68 34 -131 77 -180 42 -48 53 -47 34 6 -18 51 -20 147 -4 179 7 12 23 34 36 49 l24 25 -33 32 c-18 17 -62 46 -97 63 l-65 31 64 60 64 60 -47 -3 c-25 -2 -46 -2 -46 1 0 10 68 51 101 60 52 15 107 12 184 -10 76 -22 203 -27 236 -9 28 14 41 53 29 84 -12 32 -58 52 -136 61 -61 8 -104 36 -104 70 0 26 108 13 173 -20 27 -15 52 -25 54 -22 2 2 1 21 -3 42 -12 65 -29 77 -457 329 -141 82 -151 90 -188 149 -63 101 -151 152 -288 167 -47 5 -88 8 -91 7 -3 -1 -41 -4 -86 -5z m217 -366 c104 -54 413 -228 424 -239 13 -12 3 -8 -209 81 -94 39 -178 71 -188 71 -10 0 -32 -9 -50 -20 -21 -13 -51 -20 -81 -20 -40 0 -54 5 -78 29 -25 25 -35 29 -64 24 -19 -3 -35 -2 -35 3 0 5 30 28 68 51 103 63 126 65 213 20z m-758 -5 c27 -12 72 -39 100 -59 l51 -38 -30 -7 c-199 -49 -246 -59 -251 -54 -4 3 7 11 24 16 45 16 96 45 101 58 5 15 -45 38 -102 47 -27 4 -101 1 -165 -5 -129 -14 -181 -6 -226 33 l-26 22 108 -3 c59 -1 128 2 153 7 75 16 208 8 263 -17z"
       id="path4"
       style="fill:#ffffff;fill-opacity:1" />
    <path
       d="M6004 2572 c1 -67 -2 -83 -19 -102 -48 -54 -153 -77 -251 -57 -61 13 -62 13 -93 -15 -17 -16 -37 -25 -46 -22 -19 8 -11 21 26 43 l29 18 -35 10 c-34 11 -38 9 -90 -33 -30 -25 -55 -48 -55 -52 0 -4 19 -18 42 -31 59 -34 119 -92 202 -195 134 -169 175 -237 211 -346 l19 -55 8 33 c10 39 16 40 46 5 l23 -28 -6 40 c-4 22 -22 70 -41 107 -19 37 -34 69 -34 73 0 6 38 -14 63 -34 16 -13 17 -13 12 2 -4 9 -4 21 0 27 12 20 41 -17 66 -83 21 -56 23 -59 28 -35 l6 28 53 -40 c36 -28 52 -35 52 -24 0 23 -19 55 -53 91 -17 19 -27 38 -24 47 3 8 1 16 -5 18 -12 4 -39 78 -28 78 4 0 13 -7 20 -15 7 -8 18 -15 25 -15 8 0 32 -21 54 -47 l40 -47 10 27 c6 15 17 27 26 27 23 0 19 7 -41 66 -54 52 -61 66 -80 152 -8 38 13 24 31 -20 17 -43 43 -70 58 -61 5 3 17 -3 28 -13 11 -10 19 -12 19 -6 0 25 29 11 49 -23 11 -19 24 -34 28 -33 4 1 19 -4 32 -11 13 -7 21 -8 17 -3 -3 6 -2 12 3 14 5 1 -6 34 -25 73 -18 38 -31 71 -29 73 2 2 14 -2 27 -9 12 -7 27 -12 31 -11 4 1 26 -16 48 -38 46 -46 49 -47 42 -21 -3 13 2 24 16 32 19 13 17 15 -39 51 -33 21 -60 45 -60 53 0 15 2 15 22 1 31 -22 59 -21 51 2 -5 12 2 9 26 -10 33 -28 58 -37 46 -17 -5 7 5 9 31 5 l39 -6 -39 33 c-80 68 -165 156 -240 250 -74 94 -79 97 -99 84 -12 -8 -48 -29 -80 -47 -59 -33 -59 -33 -79 -13 -11 11 -36 44 -56 73 -21 29 -42 55 -48 57 -8 3 -11 -22 -10 -75z m283 -87 c1 -5 -99 -75 -224 -155 -283 -182 -268 -173 -282 -156 -13 16 -20 11 303 218 158 102 195 118 203 93z m-247 -48 c0 -4 -69 -53 -152 -107 -134 -87 -154 -98 -167 -85 -8 8 -13 16 -10 18 2 2 54 36 114 74 61 38 130 84 155 101 42 28 59 28 60 -1z m307 -23 c3 -10 -475 -324 -494 -324 -6 0 -13 6 -16 14 -6 15 469 327 492 323 8 -1 16 -7 18 -13z m-562 -23 c3 -6 -21 -28 -54 -50 -51 -35 -61 -38 -71 -25 -15 17 -12 21 48 55 52 30 68 34 77 20z m625 -60 c0 -12 -119 -83 -130 -76 -21 13 -8 31 48 66 40 25 61 33 70 26 6 -5 12 -12 12 -16z m-302 -182 c1 -8 -31 -35 -75 -64 -130 -82 -119 -77 -132 -61 -10 12 4 26 86 80 97 66 116 72 121 45z"
       id="path5"
       style="fill:#ffffff;fill-opacity:1" />
    <path
       d="M6080 2645 c0 -3 14 -26 31 -51 l30 -45 40 23 c65 36 65 43 1 57 -31 7 -67 15 -79 18 -13 3 -23 2 -23 -2z"
       id="path6"
       style="fill:#ffffff;fill-opacity:1" />
    <path
       d="M655 2133 c-196 -31 -346 -126 -410 -258 -24 -50 -30 -76 -33 -155 -5 -111 6 -160 51 -226 70 -104 175 -157 467 -234 102 -27 206 -58 232 -69 172 -77 164 -266 -14 -328 -82 -28 -298 -25 -398 6 -87 27 -194 79 -237 115 -17 14 -34 26 -37 26 -6 0 -106 -195 -106 -208 0 -15 136 -97 215 -129 108 -43 230 -63 389 -63 146 0 239 16 324 55 182 83 270 225 260 416 -5 73 -10 96 -38 148 -71 133 -163 182 -511 270 -257 65 -325 110 -323 217 0 69 37 117 118 158 112 56 321 46 487 -25 40 -17 84 -38 96 -46 13 -9 25 -14 27 -12 1 2 21 51 44 109 l42 105 -22 17 c-31 23 -162 74 -240 94 -62 15 -322 27 -383 17z"
       id="path7"
       style="fill:#ffffff;fill-opacity:1" />
    <path
       d="M8485 2133 c-123 -17 -292 -91 -390 -170 -119 -97 -212 -245 -251 -398 -20 -82 -23 -291 -5 -370 39 -164 138 -323 261 -419 81 -62 137 -92 242 -127 82 -28 110 -33 231 -37 84 -3 167 0 213 8 126 20 261 73 362 142 l42 29 0 299 0 300 -130 0 -130 0 0 -230 c0 -229 0 -230 -23 -245 -87 -56 -283 -81 -411 -51 -250 59 -413 287 -392 548 16 199 113 351 278 434 72 36 153 54 248 54 143 0 244 -36 354 -126 l58 -47 86 86 86 86 -29 32 c-85 89 -237 167 -382 195 -69 13 -246 17 -318 7z"
       id="path8"
       style="fill:#ffffff;fill-opacity:1" />
    <path
       d="M6754 2065 c3 -9 6 -21 6 -26 0 -13 61 -38 77 -32 22 8 16 43 -7 43 -12 0 -35 7 -52 16 -29 15 -30 15 -24 -1z"
       id="path9"
       style="fill:#ffffff;fill-opacity:1" />
    <path
       d="M12200 1885 l0 -135 -95 0 -95 0 0 -105 0 -105 95 0 95 0 0 -308 c0 -341 6 -388 61 -474 32 -50 110 -108 174 -129 60 -21 248 -17 310 5 28 10 60 24 72 32 l22 14 -34 92 c-36 99 -35 99 -100 74 -85 -32 -169 -11 -212 53 -23 33 -23 39 -23 337 l0 304 153 0 152 0 -3 105 -3 105 -150 0 -149 0 0 135 0 135 -135 0 -135 0 0 -135z"
       id="path10"
       style="fill:#ffffff;fill-opacity:1" />
    <path
       d="M5687 1939 c-14 -35 -14 -41 -1 -46 34 -13 61 51 31 76 -11 9 -17 3 -30 -30z"
       id="path11"
       style="fill:#ffffff;fill-opacity:1" />
    <path
       d="M6587 1931 c-3 -12 4 -23 23 -35 16 -9 33 -16 39 -16 20 0 12 38 -11 54 -30 21 -45 20 -51 -3z"
       id="path12"
       style="fill:#ffffff;fill-opacity:1" />
    <path
       d="M6400 1829 c0 -14 31 -39 41 -34 18 12 9 33 -16 37 -14 3 -25 2 -25 -3z"
       id="path13"
       style="fill:#ffffff;fill-opacity:1" />
    <path
       d="M1957 1751 c-271 -75 -426 -280 -427 -561 0 -165 52 -294 164 -405 108 -108 224 -158 391 -171 189 -15 352 41 460 157 62 68 84 105 69 118 -5 5 -51 32 -103 61 -83 45 -95 50 -103 35 -24 -42 -74 -87 -126 -112 -50 -24 -69 -28 -147 -28 -76 0 -99 4 -146 26 -106 50 -171 142 -189 268 -23 165 56 321 194 382 137 60 328 14 396 -96 12 -20 25 -35 29 -33 32 14 201 122 201 128 0 13 -74 104 -110 133 -39 33 -115 73 -179 94 -27 9 -99 16 -176 19 -105 3 -143 0 -198 -15z"
       id="path14"
       style="fill:#ffffff;fill-opacity:1" />
    <path
       d="M3340 1754 c-81 -22 -138 -54 -191 -106 -27 -27 -50 -48 -52 -48 -3 0 -5 12 -4 28 1 15 0 51 -1 80 l-2 52 -125 0 -125 0 0 -565 0 -565 134 0 135 0 3 328 3 327 29 63 c54 117 145 172 285 172 l76 0 -3 125 -3 125 -52 -1 c-29 0 -77 -7 -107 -15z"
       id="path15"
       style="fill:#ffffff;fill-opacity:1" />
    <path
       d="M5619 1756 c-69 -19 -168 -76 -197 -113 -33 -41 -41 -29 -34 53 l5 64 -132 0 -131 0 0 -765 0 -765 133 0 132 0 -3 265 c-2 146 0 265 3 265 3 0 16 -9 28 -21 190 -181 532 -167 733 28 172 168 216 469 103 710 -50 105 -202 249 -235 222 -8 -7 -14 -7 -19 1 -11 18 -20 11 -45 -35 -14 -25 -28 -45 -31 -45 -4 0 -14 31 -24 69 -13 55 -21 70 -38 75 -38 10 -200 5 -248 -8z m469 -144 c13 -10 27 -36 32 -57 8 -35 7 -42 -11 -57 -25 -21 -78 -24 -101 -5 -23 18 -33 67 -13 67 9 0 25 16 36 35 24 40 26 41 57 17z m-212 -97 c60 -30 112 -86 146 -161 20 -42 23 -66 23 -164 0 -112 -1 -117 -35 -179 -64 -119 -170 -177 -306 -169 -163 11 -275 117 -306 290 -25 145 49 314 165 375 99 51 218 54 313 8z m345 -209 c21 -9 34 -93 17 -113 -26 -31 -47 -34 -93 -14 -48 21 -53 34 -30 65 8 11 15 32 15 46 0 15 2 29 6 32 5 6 55 -4 85 -16z"
       id="path16"
       style="fill:#ffffff;fill-opacity:1" />
    <path
       d="M6047 1545 c-18 -25 -18 -25 8 -25 20 0 25 5 25 25 0 31 -10 31 -33 0z"
       id="path17"
       style="fill:#ffffff;fill-opacity:1" />
    <path
       d="M5738 1378 c-18 -30 -11 -75 13 -88 15 -8 19 -7 19 4 0 8 7 19 16 24 14 8 14 12 -2 45 -21 43 -27 45 -46 15z"
       id="path18"
       style="fill:#ffffff;fill-opacity:1" />
    <path
       d="M6163 1250 c-10 -25 -8 -30 8 -35 10 -4 23 -3 29 0 16 10 11 44 -8 54 -15 8 -20 4 -29 -19z"
       id="path19"
       style="fill:#ffffff;fill-opacity:1" />
    <path
       d="M6920 1754 c-265 -69 -430 -284 -430 -559 0 -276 165 -491 431 -562 88 -23 290 -23 379 0 77 21 169 71 230 125 l44 39 -74 81 -74 81 -35 -31 c-107 -94 -308 -120 -447 -59 -81 36 -162 130 -189 219 l-6 22 444 0 444 0 7 41 c9 58 -11 200 -38 274 -65 172 -197 287 -377 330 -80 18 -236 18 -309 -1z m305 -226 c64 -34 107 -79 139 -148 46 -98 71 -90 -294 -90 l-320 0 6 28 c21 92 112 195 200 225 75 26 204 18 269 -15z"
       id="path20"
       style="fill:#ffffff;fill-opacity:1" />
    <path
       d="M9866 1754 c-187 -45 -334 -174 -402 -350 -32 -83 -44 -253 -24 -347 39 -188 198 -358 390 -418 95 -29 236 -36 339 -15 223 45 397 210 447 422 25 106 15 268 -21 359 -74 185 -200 296 -391 345 -92 24 -249 26 -338 4z m301 -234 c66 -28 143 -109 169 -175 15 -38 19 -75 19 -160 0 -106 -1 -112 -34 -173 -61 -112 -160 -172 -285 -172 -208 0 -342 142 -339 360 2 162 90 289 232 335 64 21 172 14 238 -15z"
       id="path21"
       style="fill:#ffffff;fill-opacity:1" />
    <path
       d="M11170 1763 c-109 -18 -288 -89 -318 -126 -10 -12 -3 -32 35 -103 25 -49 47 -90 48 -92 1 -1 29 14 61 33 86 52 182 79 284 79 94 0 148 -14 199 -52 41 -31 81 -113 81 -168 l0 -42 -222 -5 c-233 -5 -285 -13 -371 -57 -58 -30 -104 -76 -135 -135 -24 -44 -27 -61 -27 -145 0 -84 3 -101 27 -146 65 -123 208 -194 393 -194 128 0 238 37 314 105 l41 37 0 -61 0 -61 125 0 125 0 0 376 c0 429 -5 473 -69 571 -88 136 -227 194 -456 191 -60 0 -121 -3 -135 -5z m396 -668 c12 -47 -6 -132 -36 -173 -58 -80 -138 -117 -255 -117 -66 0 -88 5 -124 25 -85 48 -112 124 -71 197 42 76 93 90 332 92 l148 1 6 -25z"
       id="path22"
       style="fill:#ffffff;fill-opacity:1" />
    <path
       d="M6357 1648 c-21 -54 -21 -58 0 -58 9 0 25 -7 35 -17 17 -15 19 -15 37 1 25 23 34 66 13 66 -9 0 -28 11 -42 25 l-27 26 -16 -43z"
       id="path23"
       style="fill:#ffffff;fill-opacity:1" />
    <path
       d="M6358 694 c-9 -20 -9 -29 0 -42 7 -9 17 -29 23 -44 6 -17 19 -28 29 -28 11 0 22 -5 26 -11 4 -8 12 -2 21 15 7 14 19 26 25 26 16 0 -41 58 -64 66 -10 3 -18 14 -18 25 0 28 -28 23 -42 -7z"
       id="path24"
       style="fill:#ffffff;fill-opacity:1" />
    <path
       d="M6270 505 c-18 -22 14 -72 35 -55 12 10 12 16 -2 38 -9 15 -18 28 -19 30 0 1 -7 -4 -14 -13z"
       id="path25"
       style="fill:#ffffff;fill-opacity:1" />
    <path
       d="M6652 392 c-18 -12 -4 -75 15 -68 8 4 17 6 19 6 6 0 5 36 -2 54 -7 18 -13 19 -32 8z"
       id="path26"
       style="fill:#ffffff;fill-opacity:1" />
    <path
       d="M5998 180 c-21 -20 -38 -39 -38 -43 0 -3 16 -11 35 -17 32 -11 37 -10 55 12 22 26 26 58 8 76 -16 16 -17 15 -60 -28z"
       id="path27"
       style="fill:#ffffff;fill-opacity:1" />
  </g>
</svg>
