<?xml version="1.0" encoding="UTF-8" standalone="no"?>
<svg
   version="1.0"
   width="2000pt"
   height="2000pt"
   viewBox="0 0 2000 2000"
   preserveAspectRatio="xMidYMid"
   id="svg2"
   sodipodi:docname="FAVICON.svg"
   inkscape:version="1.4.4 (dcaf3e7d9e, 2026-05-05)"
   xmlns:inkscape="http://www.inkscape.org/namespaces/inkscape"
   xmlns:sodipodi="http://sodipodi.sourceforge.net/DTD/sodipodi-0.dtd"
   xmlns="http://www.w3.org/2000/svg"
   xmlns:svg="http://www.w3.org/2000/svg">
  <defs
     id="defs2" />
  <sodipodi:namedview
     id="namedview2"
     pagecolor="#505050"
     bordercolor="#ffffff"
     borderopacity="1"
     inkscape:showpageshadow="0"
     inkscape:pageopacity="0"
     inkscape:pagecheckerboard="1"
     inkscape:deskcolor="#505050"
     inkscape:document-units="pt"
     inkscape:zoom="0.412875"
     inkscape:cx="1332.1223"
     inkscape:cy="1333.3333"
     inkscape:window-width="1693"
     inkscape:window-height="1363"
     inkscape:window-x="0"
     inkscape:window-y="0"
     inkscape:window-maximized="1"
     inkscape:current-layer="svg2" />
  <metadata
     id="metadata1">
Created by potrace 1.12, written by Peter Selinger 2001-2015
</metadata>
  <g
     id="g3">
    <g
       transform="matrix(0.1,0,0,-0.1,0,2000)"
       fill="#000000"
       stroke="none"
       id="g2"
       style="fill:#ffffff;fill-opacity:1">
      <rect
         style="fill:#000000;fill-opacity:1;stroke:#f4f4f4;stroke-width:0;stroke-opacity:0.837636"
         id="rect2"
         width="1983.6514"
         height="1972.752"
         x="10.899183"
         y="14.532243"
         transform="matrix(9.9999998,0,0,-9.9999998,0,20000)" />
      <path
         d="M 0,10000 V 0 H 10000 20000 V 10000 20000 H 10000 0 Z m 18273,3401 c -1,-2697 -6,-4908 -10,-4912 -4,-4 -37,17 -73,47 -61,52 -97,78 -230,168 -30,21 -75,54 -100,75 -25,20 -65,49 -90,63 -25,14 -76,51 -113,81 -38,29 -103,73 -145,97 -42,23 -102,62 -132,85 -141,106 -178,133 -254,177 -44,27 -84,48 -88,48 -8,0 -196,117 -248,155 -19,14 -48,33 -65,42 -77,46 -101,60 -149,92 -84,55 -215,121 -241,121 -46,0 -130,-40 -200,-95 -224,-176 -600,-391 -815,-467 -41,-14 -117,-42 -168,-62 -106,-41 -262,-87 -402,-117 -52,-11 -128,-29 -167,-40 -40,-10 -87,-19 -105,-19 -18,0 -58,-7 -88,-15 -30,-8 -85,-15 -121,-15 -37,0 -91,-5 -120,-10 -30,-6 -153,-17 -274,-25 -262,-16 -283,-22 -398,-117 -45,-38 -85,-68 -89,-68 -4,0 -42,-28 -85,-63 -93,-75 -215,-168 -291,-220 -60,-41 -200,-149 -323,-248 -42,-34 -95,-72 -118,-85 -23,-13 -85,-59 -139,-102 -53,-44 -128,-99 -167,-122 -38,-23 -108,-73 -155,-109 -47,-37 -116,-89 -155,-116 -38,-27 -114,-84 -168,-127 -54,-43 -112,-85 -130,-95 -64,-33 -234,-160 -309,-232 l -78,-74 -65,58 c -36,31 -98,96 -139,143 -41,48 -100,109 -130,135 -31,27 -56,52 -56,56 0,5 19,21 43,36 23,16 74,52 112,82 39,29 122,88 185,130 63,42 148,103 188,135 40,31 100,74 135,94 34,20 103,69 152,108 50,40 115,88 145,107 30,18 102,72 159,118 58,46 137,107 177,135 40,28 109,78 153,111 44,33 121,89 170,124 50,35 98,75 106,87 26,40 29,104 6,141 -36,58 -70,71 -336,128 -111,24 -272,71 -455,131 -162,54 -235,74 -264,74 -50,-1 -104,-32 -221,-129 -60,-51 -135,-108 -165,-128 -30,-20 -84,-57 -120,-83 -36,-25 -76,-51 -90,-57 -14,-6 -63,-39 -109,-73 -46,-34 -109,-78 -140,-98 -31,-19 -66,-43 -77,-54 -12,-10 -51,-38 -87,-61 -154,-98 -336,-223 -385,-265 l -53,-44 -56,49 c -72,61 -238,214 -280,259 -46,48 -43,66 20,99 28,16 72,48 97,71 25,23 59,48 76,57 17,9 55,36 85,60 86,69 412,293 512,351 64,37 184,151 208,198 57,112 9,164 -313,330 -124,64 -259,130 -299,147 -41,17 -119,56 -174,86 -55,30 -165,87 -245,127 l -145,73 -118,3 -117,4 -118,-62 c -64,-35 -148,-84 -187,-110 -86,-57 -168,-109 -260,-163 -38,-22 -120,-77 -181,-121 -60,-45 -147,-103 -193,-131 -46,-27 -131,-86 -190,-130 -58,-43 -136,-96 -174,-117 -38,-20 -83,-49 -100,-64 -18,-14 -102,-68 -187,-120 -85,-52 -162,-104 -171,-117 -53,-73 -28,-146 92,-271 48,-51 108,-106 131,-122 60,-40 154,-123 613,-543 1033,-945 1549,-1435 1995,-1898 303,-313 580,-608 618,-656 18,-23 95,-109 170,-191 75,-82 158,-176 184,-210 69,-89 169,-208 288,-343 58,-66 156,-187 219,-269 63,-82 145,-185 181,-229 97,-115 221,-280 275,-366 27,-41 73,-104 104,-140 67,-80 135,-176 228,-324 39,-60 97,-148 130,-193 33,-46 75,-114 94,-150 19,-37 52,-91 74,-122 22,-30 51,-75 64,-100 14,-25 50,-83 82,-130 69,-104 224,-379 334,-595 45,-88 103,-198 129,-244 26,-46 60,-114 75,-151 l 28,-67 -351,-6 c -193,-4 -2886,-7 -5983,-7 H 1740 v 3893 c 0,2140 3,3929 7,3975 l 6,83 41,-6 c 23,-4 100,-27 171,-51 72,-25 166,-56 210,-70 44,-14 112,-39 150,-55 39,-16 95,-37 125,-48 99,-34 349,-149 433,-200 45,-27 118,-67 162,-90 138,-71 261,-167 426,-331 160,-159 187,-196 274,-370 72,-142 95,-212 111,-325 8,-60 22,-135 31,-165 24,-80 24,-451 0,-530 -9,-30 -24,-125 -33,-210 -9,-85 -21,-164 -26,-175 -18,-32 -52,-170 -88,-355 -6,-30 -18,-84 -27,-120 -9,-36 -19,-94 -23,-130 -4,-36 -12,-81 -18,-100 -5,-19 -13,-116 -16,-215 -3,-125 -9,-192 -20,-220 -20,-52 -20,-120 -1,-181 11,-33 18,-109 22,-234 3,-104 11,-209 19,-240 8,-30 14,-77 14,-105 0,-27 8,-88 19,-135 11,-47 25,-110 31,-140 24,-125 40,-189 65,-260 14,-41 32,-100 39,-130 18,-76 80,-256 110,-321 14,-30 48,-108 76,-174 28,-66 78,-167 110,-225 32,-58 86,-157 120,-220 137,-251 369,-617 439,-690 40,-42 99,-58 166,-46 43,8 91,56 105,104 16,59 12,154 -10,222 -18,57 -20,90 -20,397 0,278 3,340 15,371 9,20 20,94 26,165 5,71 13,137 18,146 5,9 14,49 20,90 6,40 15,81 20,90 5,9 11,34 15,56 12,70 58,229 119,410 51,153 281,605 308,605 5,0 9,-28 9,-63 0,-34 5,-78 11,-97 6,-19 15,-96 19,-170 4,-91 12,-145 22,-165 9,-17 19,-57 23,-90 4,-33 12,-71 17,-85 5,-14 13,-43 18,-65 17,-77 49,-181 80,-265 17,-47 35,-97 40,-112 4,-14 21,-55 38,-90 16,-34 33,-74 37,-88 4,-14 19,-47 34,-75 15,-27 35,-71 45,-97 9,-26 40,-84 67,-130 28,-46 65,-114 83,-153 52,-112 191,-320 284,-428 48,-55 98,-114 112,-132 68,-88 165,-197 193,-217 18,-12 59,-49 93,-82 192,-194 595,-518 785,-633 36,-22 99,-64 140,-94 68,-50 139,-93 321,-193 57,-31 76,-36 130,-36 75,0 120,23 144,74 22,45 14,73 -38,134 -46,54 -145,215 -216,352 -24,47 -52,99 -62,115 -31,52 -98,208 -114,265 -9,30 -34,107 -56,170 -23,63 -46,133 -52,155 -6,22 -19,67 -29,99 -11,33 -19,70 -19,82 0,12 -9,50 -20,84 -11,34 -20,78 -20,97 0,19 -8,48 -17,66 -16,29 -18,75 -21,467 -3,409 -2,439 16,495 11,33 23,82 26,109 3,26 12,69 20,95 8,25 24,80 37,121 12,41 32,95 45,120 12,25 49,107 82,183 33,76 73,155 89,175 78,103 230,277 309,352 87,84 286,240 304,240 6,0 72,34 148,75 138,75 324,152 423,175 30,7 113,28 184,48 142,38 186,49 228,57 15,3 44,20 63,38 37,34 52,84 40,131 -8,32 -161,165 -369,319 -84,63 -213,163 -286,222 -73,58 -174,136 -224,172 -113,81 -303,231 -457,359 -205,170 -259,213 -323,249 -34,20 -98,72 -142,114 -101,99 -487,390 -527,398 -56,11 -603,523 -643,602 -21,41 -21,114 -1,162 31,75 143,190 280,288 222,159 428,292 484,311 50,18 182,96 315,187 172,117 404,263 502,315 101,55 136,76 273,163 86,55 120,141 85,212 -15,33 -34,46 -133,97 -63,33 -158,75 -210,94 -178,63 -305,102 -333,102 -29,0 -133,23 -197,43 -19,6 -55,14 -80,18 -25,3 -72,14 -105,23 -32,9 -86,16 -120,16 -33,0 -81,7 -106,14 -26,8 -89,17 -140,21 -52,4 -129,13 -173,21 -43,8 -115,14 -160,14 -44,0 -103,7 -130,15 -26,8 -78,17 -115,21 -80,7 -141,22 -141,34 0,26 252,168 345,194 28,8 84,25 125,39 114,39 214,67 240,67 13,0 46,6 74,14 166,47 172,47 581,44 257,-2 410,-8 448,-16 96,-20 169,-34 227,-42 76,-10 257,-64 375,-110 39,-15 108,-40 155,-55 178,-56 504,-193 720,-303 284,-144 510,-258 592,-298 34,-17 221,-111 413,-209 193,-98 402,-197 465,-220 63,-24 167,-67 230,-95 114,-52 343,-143 409,-162 18,-5 75,-25 125,-44 78,-31 291,-94 421,-127 22,-5 57,-16 78,-23 20,-8 54,-14 74,-14 20,0 64,-9 97,-20 38,-12 128,-25 237,-34 97,-9 207,-23 245,-32 59,-14 123,-15 454,-12 287,3 391,8 409,17 13,7 87,20 165,27 135,14 253,39 324,70 18,8 40,14 48,14 9,0 54,18 100,39 61,29 89,48 104,73 39,62 242,483 272,563 65,176 117,392 124,513 4,59 13,132 20,162 17,64 18,219 3,275 -6,22 -15,82 -19,133 -10,133 -58,280 -150,467 -65,133 -149,271 -207,342 -85,103 -212,228 -273,268 -36,24 -81,54 -100,67 -132,91 -200,127 -398,212 -122,53 -235,99 -250,102 -15,4 -52,20 -84,35 -31,16 -125,53 -210,83 -84,30 -175,64 -201,75 -27,12 -55,21 -63,21 -9,0 -69,25 -134,55 -65,30 -125,55 -132,55 -7,0 -90,38 -183,84 -161,80 -177,91 -305,204 -259,228 -289,269 -395,539 l -56,143 3,217 3,218 35,73 35,73 83,-70 c 46,-39 93,-76 104,-82 12,-6 49,-32 82,-56 88,-65 421,-225 546,-263 58,-17 132,-40 165,-52 33,-11 83,-27 110,-35 272,-83 638,-202 714,-231 52,-20 128,-56 170,-81 42,-24 110,-62 151,-85 41,-23 96,-57 121,-76 25,-19 75,-55 109,-80 111,-79 300,-276 451,-468 37,-48 82,-104 100,-125 47,-56 107,-156 183,-307 73,-145 110,-193 164,-211 83,-27 152,11 299,164 114,120 173,203 256,366 105,206 146,321 182,516 14,75 34,149 72,270 9,28 22,106 29,175 7,69 18,145 23,170 13,58 13,262 0,320 -5,25 -14,81 -20,126 -9,76 -49,230 -82,320 -9,22 -56,123 -106,223 -113,229 -172,318 -346,519 -105,121 -210,250 -254,311 -22,30 -97,105 -168,168 -175,157 -395,376 -450,448 -25,33 -64,76 -87,95 -22,19 -116,105 -208,192 -92,86 -200,184 -240,217 -41,33 -84,74 -96,90 -12,17 -55,54 -95,84 -39,29 -135,114 -212,188 -214,204 -371,348 -585,538 -107,96 -206,184 -220,197 l -25,24 2670,-2 2670,-3 z M 15803,8779 c 56,-29 137,-82 137,-90 0,-4 -19,-18 -42,-32 -24,-14 -70,-49 -103,-77 -33,-29 -91,-74 -130,-101 -161,-115 -204,-147 -266,-198 -35,-30 -95,-75 -134,-102 -38,-26 -124,-93 -190,-149 -66,-55 -139,-113 -163,-128 -117,-74 -289,-207 -411,-316 -42,-38 -107,-89 -146,-114 -38,-24 -97,-66 -130,-92 -33,-26 -80,-60 -105,-75 -24,-15 -69,-51 -98,-79 -53,-50 -145,-119 -231,-173 -24,-16 -76,-53 -115,-84 -39,-31 -92,-68 -118,-83 -26,-15 -62,-41 -80,-58 -18,-17 -73,-61 -123,-99 -49,-37 -120,-91 -157,-121 -173,-136 -257,-200 -300,-227 -25,-16 -63,-45 -85,-64 -21,-19 -67,-54 -103,-79 -192,-132 -236,-165 -289,-214 -32,-30 -63,-54 -69,-54 -5,0 -21,15 -35,33 -13,17 -71,77 -127,132 -117,114 -175,194 -166,230 4,14 32,41 70,67 35,23 99,70 142,103 44,32 133,99 199,149 66,49 143,108 170,131 28,23 108,81 180,130 71,48 168,120 215,159 47,40 99,81 115,91 17,10 62,44 100,75 39,31 90,69 114,85 24,15 77,54 118,86 41,32 78,59 82,59 4,0 44,33 89,74 46,41 104,87 130,102 26,15 76,50 112,78 36,28 79,60 95,70 17,11 73,54 125,97 223,183 271,216 378,264 59,26 159,75 222,109 63,34 156,81 205,105 281,135 495,235 549,256 100,38 288,123 299,134 15,15 22,14 70,-10 z m 1143,-729 c 13,0 229,-168 268,-209 l 40,-41 -30,-31 c -16,-18 -55,-51 -87,-75 -33,-24 -96,-73 -140,-109 -45,-35 -143,-110 -217,-165 -74,-56 -199,-156 -278,-223 -79,-67 -151,-126 -160,-131 -9,-5 -57,-43 -106,-84 -49,-41 -119,-94 -155,-118 -85,-57 -229,-164 -317,-236 -92,-76 -269,-212 -346,-268 -34,-25 -98,-71 -143,-103 -44,-32 -118,-92 -165,-133 -103,-91 -183,-153 -312,-240 -54,-36 -132,-96 -175,-133 -180,-155 -270,-225 -419,-327 -88,-59 -187,-134 -222,-166 -34,-32 -84,-72 -111,-90 -57,-38 -273,-201 -414,-311 -54,-42 -105,-77 -112,-77 -8,0 -27,19 -44,43 -16,23 -49,60 -73,82 -23,22 -58,70 -77,105 -19,35 -52,83 -73,106 -21,23 -38,44 -38,48 0,6 129,105 255,196 34,25 93,70 131,101 38,30 85,66 104,79 19,13 68,53 109,89 40,37 104,86 140,111 142,96 197,138 403,307 151,125 230,184 338,253 63,40 153,109 198,152 46,43 121,103 165,133 179,120 293,207 510,385 51,42 128,103 172,136 210,158 304,231 355,274 30,25 66,53 80,62 14,8 75,58 137,111 61,52 133,110 160,128 26,17 77,55 113,84 36,28 75,57 87,63 12,7 59,44 104,83 46,39 101,83 123,97 23,14 61,42 85,63 l 43,38 43,-29 c 24,-17 47,-30 51,-30 z m 1243,-988 91,-83 v -178 -177 l -106,-95 c -58,-52 -140,-118 -182,-147 -43,-29 -113,-84 -158,-122 -44,-38 -114,-95 -155,-128 -41,-32 -104,-85 -139,-117 -36,-32 -94,-77 -130,-100 -36,-23 -106,-78 -156,-122 -50,-44 -106,-90 -125,-103 -19,-13 -81,-63 -137,-110 -57,-47 -143,-112 -191,-146 -48,-34 -148,-110 -222,-170 -74,-61 -150,-121 -168,-134 -19,-13 -87,-69 -150,-123 -64,-54 -136,-113 -161,-129 -25,-17 -83,-63 -130,-103 -47,-39 -112,-91 -145,-115 -33,-24 -98,-76 -145,-115 -47,-38 -110,-88 -140,-109 -30,-22 -80,-61 -110,-86 -30,-25 -80,-63 -110,-85 -30,-21 -104,-80 -165,-131 -132,-112 -287,-234 -387,-305 -40,-29 -110,-84 -155,-123 -118,-103 -285,-232 -309,-240 -18,-6 -29,6 -76,81 -31,49 -63,102 -71,118 -8,17 -40,62 -69,100 -30,39 -65,88 -78,109 l -24,39 40,34 c 21,19 75,62 119,95 44,34 115,92 157,130 43,37 103,84 134,103 60,39 143,103 345,271 70,57 156,126 192,152 147,106 205,151 309,240 60,51 137,114 171,140 34,25 88,68 120,94 32,27 82,63 110,81 29,19 90,66 136,106 47,40 110,92 140,114 31,23 94,73 141,112 47,40 105,85 130,101 124,83 191,132 269,198 47,40 120,98 161,128 41,30 108,85 148,122 40,37 83,71 96,75 12,5 56,36 97,68 41,32 97,74 124,93 28,19 90,71 138,115 49,44 119,103 156,130 37,28 98,75 136,105 39,31 99,76 135,102 36,25 99,76 140,113 41,37 109,93 150,125 42,32 82,65 89,74 8,9 18,15 22,14 4,-2 49,-40 98,-86 z m 81,-2354 c 0,-134 3,-313 6,-398 l 5,-155 -101,-80 c -56,-44 -146,-112 -201,-151 -201,-143 -229,-191 -173,-302 27,-54 135,-166 362,-372 l 112,-102 -2,-249 c -2,-151 -7,-250 -13,-252 -5,-1 -41,44 -80,99 -38,56 -104,139 -146,185 -42,46 -93,109 -112,139 -20,30 -67,94 -104,141 -198,251 -215,265 -328,263 -93,-1 -119,-15 -240,-125 -55,-50 -125,-109 -155,-132 -30,-22 -91,-72 -135,-110 -44,-38 -109,-88 -145,-112 -233,-155 -257,-234 -110,-370 18,-16 51,-55 73,-85 51,-68 147,-178 209,-239 48,-47 135,-157 158,-201 14,-26 75,-106 182,-238 37,-46 81,-103 98,-127 l 31,-45 -238,1 c -131,1 -269,4 -306,8 l -69,6 -55,100 c -30,55 -72,123 -93,150 -21,28 -80,115 -131,195 -175,276 -216,315 -329,315 -79,0 -99,-11 -235,-135 -49,-44 -110,-95 -135,-112 -25,-17 -92,-70 -150,-118 -58,-48 -133,-105 -167,-128 -120,-81 -151,-158 -108,-264 7,-17 -28,-18 -641,-18 h -648 l 35,36 c 18,20 54,47 79,62 25,14 86,57 135,96 50,39 117,91 150,115 32,25 98,81 145,124 47,44 114,99 149,123 101,67 293,220 411,326 60,53 119,102 132,109 13,6 52,35 88,64 36,28 94,71 129,95 34,23 105,79 157,124 51,44 121,103 156,129 35,26 92,73 128,103 36,30 88,68 116,83 28,16 82,58 121,93 74,66 242,202 345,278 34,25 97,76 142,114 45,38 115,94 156,124 41,31 113,88 160,127 47,39 103,84 125,100 22,16 84,67 137,112 53,46 127,104 165,129 37,26 95,70 128,99 33,28 92,76 130,105 39,30 108,87 155,128 47,41 128,105 180,142 52,37 106,80 119,94 14,14 28,26 33,26 4,0 8,-109 8,-242 z"
         id="path1"
         style="fill:#ffffff;fill-opacity:1" />
      <path
         d="m 16335,12916 c -49,-22 -81,-65 -134,-179 -46,-97 -55,-110 -98,-136 -88,-54 -103,-71 -159,-185 -55,-113 -159,-270 -226,-345 -21,-22 -38,-45 -38,-49 0,-4 -25,-37 -55,-72 -30,-36 -67,-87 -82,-115 l -28,-50 -5,-450 c -4,-292 -10,-466 -17,-495 -7,-25 -16,-67 -22,-95 -10,-52 -39,-156 -65,-235 -8,-25 -24,-76 -34,-115 -11,-38 -32,-101 -46,-140 -44,-116 -47,-126 -35,-167 14,-54 75,-114 124,-124 122,-23 310,104 626,421 145,146 211,237 316,437 101,195 155,314 208,468 57,164 67,212 76,340 4,69 15,152 23,185 22,86 20,224 -4,310 -15,52 -20,101 -20,190 -1,66 -5,140 -11,165 -5,25 -16,83 -24,130 -21,128 -60,241 -92,272 -50,48 -118,61 -178,34 z"
         id="path2"
         style="fill:#ffffff;fill-opacity:1" />
    </g>
  </g>
</svg>
